{
    "asset" : {
        "generator" : "Khronos glTF Blender I/O v1.4.40",
        "version" : "2.0"
    },
    "scene" : 0,
    "scenes" : [
        {
            "name" : "Scene",
            "nodes" : [
                0,
                1,
                2
            ]
        }
    ],
    "nodes" : [
        {
            "mesh" : 0,
            "name" : "Living Room Block",
            "scale" : [
                0.5,
                0.5,
                0.5
            ],
            "translation" : [
                0.5,
                0.5,
                -0.5
            ]
        },
        {
            "mesh" : 1,
            "name" : "Kitchen Block",
            "scale" : [
                0.5,
                0.5,
                0.5
            ],
            "translation" : [
                0.5,
                0.5,
                -5.5
            ]
        },
        {
            "mesh" : 2,
            "name" : "Wall",
            "scale" : [
                0.5,
                0.5,
                0.25
            ],
            "translation" : [
                2.5,
                1.5,
                -4.75
            ]
        }
    ],
    "materials" : [
        {
            "doubleSided" : true,
            "name" : "Material",
            "pbrMetallicRoughness" : {
                "metallicFactor" : 0,
                "roughnessFactor" : 0.4000000059604645
            }
        },
        {
            "doubleSided" : true,
            "name" : "LivingFloor",
            "pbrMetallicRoughness" : {
                "baseColorTexture" : {
                    "index" : 0,
                    "texCoord" : 0
                },
                "metallicFactor" : 0,
                "roughnessFactor" : 0.949999988079071
            }
        },
        {
            "doubleSided" : true,
            "name" : "Material.001",
            "pbrMetallicRoughness" : {
                "baseColorTexture" : {
                    "index" : 1,
                    "texCoord" : 0
                },
                "metallicFactor" : 0,
                "roughnessFactor" : 0.5
            }
        },
        {
            "doubleSided" : true,
            "name" : "Material.002",
            "pbrMetallicRoughness" : {
                "baseColorFactor" : [
                    0.07049015909433365,
                    0.05872390791773796,
                    0.08353166282176971,
                    1
                ],
                "metallicFactor" : 0,
                "roughnessFactor" : 0.5
            }
        }
    ],
    "meshes" : [
        {
            "name" : "Cube",
            "primitives" : [
                {
                    "attributes" : {
                        "POSITION" : 0,
                        "NORMAL" : 1,
                        "TEXCOORD_0" : 2
                    },
                    "indices" : 3,
                    "material" : 0
                },
                {
                    "attributes" : {
                        "POSITION" : 4,
                        "NORMAL" : 5,
                        "TEXCOORD_0" : 6
                    },
                    "indices" : 7,
                    "material" : 1
                }
            ]
        },
        {
            "name" : "Cube.001",
            "primitives" : [
                {
                    "attributes" : {
                        "POSITION" : 8,
                        "NORMAL" : 9,
                        "TEXCOORD_0" : 10
                    },
                    "indices" : 11,
                    "material" : 2
                },
                {
                    "attributes" : {
                        "POSITION" : 12,
                        "NORMAL" : 13,
                        "TEXCOORD_0" : 14
                    },
                    "indices" : 15,
                    "material" : 0
                }
            ]
        },
        {
            "name" : "Cube.002",
            "primitives" : [
                {
                    "attributes" : {
                        "POSITION" : 16,
                        "NORMAL" : 17,
                        "TEXCOORD_0" : 18
                    },
                    "indices" : 19,
                    "material" : 3
                }
            ]
        }
    ],
    "textures" : [
        {
            "sampler" : 0,
            "source" : 0
        },
        {
            "sampler" : 0,
            "source" : 1
        }
    ],
    "images" : [
        {
            "mimeType" : "image/png",
            "name" : "LivingFloor",
            "uri" : "LivingFloor.png"
        },
        {
            "mimeType" : "image/png",
            "name" : "KitchenFloor",
            "uri" : "KitchenFloor.png"
        }
    ],
    "accessors" : [
        {
            "bufferView" : 0,
            "componentType" : 5126,
            "count" : 1096,
            "max" : [
                19,
                2,
                1
            ],
            "min" : [
                -1,
                -1,
                -9
            ],
            "type" : "VEC3"
        },
        {
            "bufferView" : 1,
            "componentType" : 5126,
            "count" : 1096,
            "type" : "VEC3"
        },
        {
            "bufferView" : 2,
            "componentType" : 5126,
            "count" : 1096,
            "type" : "VEC2"
        },
        {
            "bufferView" : 3,
            "componentType" : 5123,
            "count" : 1788,
            "type" : "SCALAR"
        },
        {
            "bufferView" : 4,
            "componentType" : 5126,
            "count" : 200,
            "max" : [
                19,
                2,
                1
            ],
            "min" : [
                -1,
                1,
                -9
            ],
            "type" : "VEC3"
        },
        {
            "bufferView" : 5,
            "componentType" : 5126,
            "count" : 200,
            "type" : "VEC3"
        },
        {
            "bufferView" : 6,
            "componentType" : 5126,
            "count" : 200,
            "type" : "VEC2"
        },
        {
            "bufferView" : 7,
            "componentType" : 5123,
            "count" : 300,
            "type" : "SCALAR"
        },
        {
            "bufferView" : 8,
            "componentType" : 5126,
            "count" : 7800,
            "max" : [
                19,
                1.1141818761825562,
                1
            ],
            "min" : [
                -1,
                1,
                -9
            ],
            "type" : "VEC3"
        },
        {
            "bufferView" : 9,
            "componentType" : 5126,
            "count" : 7800,
            "type" : "VEC3"
        },
        {
            "bufferView" : 10,
            "componentType" : 5126,
            "count" : 7800,
            "type" : "VEC2"
        },
        {
            "bufferView" : 11,
            "componentType" : 5123,
            "count" : 19200,
            "type" : "SCALAR"
        },
        {
            "bufferView" : 12,
            "componentType" : 5126,
            "count" : 11700,
            "max" : [
                19,
                1,
                1
            ],
            "min" : [
                -1,
                -1,
                -9
            ],
            "type" : "VEC3"
        },
        {
            "bufferView" : 13,
            "componentType" : 5126,
            "count" : 11700,
            "type" : "VEC3"
        },
        {
            "bufferView" : 14,
            "componentType" : 5126,
            "count" : 11700,
            "type" : "VEC2"
        },
        {
            "bufferView" : 15,
            "componentType" : 5123,
            "count" : 51000,
            "type" : "SCALAR"
        },
        {
            "bufferView" : 16,
            "componentType" : 5126,
            "count" : 327,
            "max" : [
                11,
                3,
                1
            ],
            "min" : [
                -1,
                -1,
                -1
            ],
            "type" : "VEC3"
        },
        {
            "bufferView" : 17,
            "componentType" : 5126,
            "count" : 327,
            "type" : "VEC3"
        },
        {
            "bufferView" : 18,
            "componentType" : 5126,
            "count" : 327,
            "type" : "VEC2"
        },
        {
            "bufferView" : 19,
            "componentType" : 5123,
            "count" : 510,
            "type" : "SCALAR"
        }
    ],
    "bufferViews" : [
        {
            "buffer" : 0,
            "byteLength" : 13152,
            "byteOffset" : 0
        },
        {
            "buffer" : 0,
            "byteLength" : 13152,
            "byteOffset" : 13152
        },
        {
            "buffer" : 0,
            "byteLength" : 8768,
            "byteOffset" : 26304
        },
        {
            "buffer" : 0,
            "byteLength" : 3576,
            "byteOffset" : 35072
        },
        {
            "buffer" : 0,
            "byteLength" : 2400,
            "byteOffset" : 38648
        },
        {
            "buffer" : 0,
            "byteLength" : 2400,
            "byteOffset" : 41048
        },
        {
            "buffer" : 0,
            "byteLength" : 1600,
            "byteOffset" : 43448
        },
        {
            "buffer" : 0,
            "byteLength" : 600,
            "byteOffset" : 45048
        },
        {
            "buffer" : 0,
            "byteLength" : 93600,
            "byteOffset" : 45648
        },
        {
            "buffer" : 0,
            "byteLength" : 93600,
            "byteOffset" : 139248
        },
        {
            "buffer" : 0,
            "byteLength" : 62400,
            "byteOffset" : 232848
        },
        {
            "buffer" : 0,
            "byteLength" : 38400,
            "byteOffset" : 295248
        },
        {
            "buffer" : 0,
            "byteLength" : 140400,
            "byteOffset" : 333648
        },
        {
            "buffer" : 0,
            "byteLength" : 140400,
            "byteOffset" : 474048
        },
        {
            "buffer" : 0,
            "byteLength" : 93600,
            "byteOffset" : 614448
        },
        {
            "buffer" : 0,
            "byteLength" : 102000,
            "byteOffset" : 708048
        },
        {
            "buffer" : 0,
            "byteLength" : 3924,
            "byteOffset" : 810048
        },
        {
            "buffer" : 0,
            "byteLength" : 3924,
            "byteOffset" : 813972
        },
        {
            "buffer" : 0,
            "byteLength" : 2616,
            "byteOffset" : 817896
        },
        {
            "buffer" : 0,
            "byteLength" : 1020,
            "byteOffset" : 820512
        }
    ],
    "samplers" : [
        {
            "magFilter" : 9728,
            "minFilter" : 9984
        }
    ],
    "buffers" : [
        {
            "byteLength" : 821532,
            "uri" : "Aether Map 1.bin"
        }
    ]
}
